<svg xmlns="http://www.w3.org/2000/svg" viewBox="0 0 40 40" fill="none"><g stroke="#8B7B65" stroke-linecap="round" stroke-linejoin="round">
<path d="M28 8 Q32 10 34 16 Q34 22 30 26 Q26 30 22 32 Q18 34 14 32" fill="#F0B8A0" stroke-width="1.7"></path>
<path d="M14 32 Q10 30 8 28" stroke-width="1.5"></path>
<path d="M28 8 Q26 6 24 8 Q22 10 24 12" stroke-width="1.3"></path>
<path d="M30 14 Q26 16 28 20" stroke-width="1" opacity="0.4"></path>
<path d="M28 20 Q24 22 26 26" stroke-width="1" opacity="0.4"></path>
<circle cx="26" cy="8" r="1.2" fill="#8B7B65"></circle>
<path d="M8 28 Q6 26 4 28" stroke-width="1.2"></path>
<path d="M8 28 Q6 30 4 30" stroke-width="1.2"></path>
</g></svg>